<svg width="1900" height="10000" viewBox="0 0 1900 10000" fill="none" xmlns="http://www.w3.org/2000/svg">
<g clip-path="url(#clip0)">
<rect width="1900" height="10000" fill="white"/>
<path fill-rule="evenodd" clip-rule="evenodd" d="M338 481C329.163 481 322 488.163 322 497V515C322 523.837 329.163 531 338 531H356C364.837 531 372 523.837 372 515V497C372 488.163 364.837 481 356 481H338ZM343 486C334.163 486 327 493.163 327 502V510C327 518.837 334.163 526 343 526H351C359.837 526 367 518.837 367 510V502C367 493.163 359.837 486 351 486H343Z" fill="#4A4A4A" fill-opacity="0.05"/>
<path fill-rule="evenodd" clip-rule="evenodd" d="M418 481C409.163 481 402 488.163 402 497V515C402 523.837 409.163 531 418 531H436C444.837 531 452 523.837 452 515V497C452 488.163 444.837 481 436 481H418ZM423 486C414.163 486 407 493.163 407 502V510C407 518.837 414.163 526 423 526H431C439.837 526 447 518.837 447 510V502C447 493.163 439.837 486 431 486H423Z" fill="#4A4A4A" fill-opacity="0.05"/>
<path fill-rule="evenodd" clip-rule="evenodd" d="M498 481C489.163 481 482 488.163 482 497V515C482 523.837 489.163 531 498 531H516C524.837 531 532 523.837 532 515V497C532 488.163 524.837 481 516 481H498ZM503 486C494.163 486 487 493.163 487 502V510C487 518.837 494.163 526 503 526H511C519.837 526 527 518.837 527 510V502C527 493.163 519.837 486 511 486H503Z" fill="#4A4A4A" fill-opacity="0.05"/>
<path fill-rule="evenodd" clip-rule="evenodd" d="M578 481C569.163 481 562 488.163 562 497V515C562 523.837 569.163 531 578 531H596C604.837 531 612 523.837 612 515V497C612 488.163 604.837 481 596 481H578ZM583 486C574.163 486 567 493.163 567 502V510C567 518.837 574.163 526 583 526H591C599.837 526 607 518.837 607 510V502C607 493.163 599.837 486 591 486H583Z" fill="#4A4A4A" fill-opacity="0.05"/>
<path fill-rule="evenodd" clip-rule="evenodd" d="M578 561C569.163 561 562 568.163 562 577V595C562 603.837 569.163 611 578 611H596C604.837 611 612 603.837 612 595V577C612 568.163 604.837 561 596 561H578ZM583 566C574.163 566 567 573.163 567 582V590C567 598.837 574.163 606 583 606H591C599.837 606 607 598.837 607 590V582C607 573.163 599.837 566 591 566H583Z" fill="#4A4A4A" fill-opacity="0.05"/>
<path fill-rule="evenodd" clip-rule="evenodd" d="M578 641C569.163 641 562 648.163 562 657V675C562 683.837 569.163 691 578 691H596C604.837 691 612 683.837 612 675V657C612 648.163 604.837 641 596 641H578ZM583 646C574.163 646 567 653.163 567 662V670C567 678.837 574.163 686 583 686H591C599.837 686 607 678.837 607 670V662C607 653.163 599.837 646 591 646H583Z" fill="#4A4A4A" fill-opacity="0.05"/>
<path fill-rule="evenodd" clip-rule="evenodd" d="M498 561C489.163 561 482 568.163 482 577V595C482 603.837 489.163 611 498 611H516C524.837 611 532 603.837 532 595V577C532 568.163 524.837 561 516 561H498ZM503 566C494.163 566 487 573.163 487 582V590C487 598.837 494.163 606 503 606H511C519.837 606 527 598.837 527 590V582C527 573.163 519.837 566 511 566H503Z" fill="#4A4A4A" fill-opacity="0.05"/>
<path fill-rule="evenodd" clip-rule="evenodd" d="M418 561C409.163 561 402 568.163 402 577V595C402 603.837 409.163 611 418 611H436C444.837 611 452 603.837 452 595V577C452 568.163 444.837 561 436 561H418ZM423 566C414.163 566 407 573.163 407 582V590C407 598.837 414.163 606 423 606H431C439.837 606 447 598.837 447 590V582C447 573.163 439.837 566 431 566H423Z" fill="#4A4A4A" fill-opacity="0.05"/>
<path fill-rule="evenodd" clip-rule="evenodd" d="M498 641C489.163 641 482 648.163 482 657V675C482 683.837 489.163 691 498 691H516C524.837 691 532 683.837 532 675V657C532 648.163 524.837 641 516 641H498ZM503 646C494.163 646 487 653.163 487 662V670C487 678.837 494.163 686 503 686H511C519.837 686 527 678.837 527 670V662C527 653.163 519.837 646 511 646H503Z" fill="#4A4A4A" fill-opacity="0.05"/>
<path fill-rule="evenodd" clip-rule="evenodd" d="M578 721C569.163 721 562 728.163 562 737V755C562 763.837 569.163 771 578 771H596C604.837 771 612 763.837 612 755V737C612 728.163 604.837 721 596 721H578ZM583 726C574.163 726 567 733.163 567 742V750C567 758.837 574.163 766 583 766H591C599.837 766 607 758.837 607 750V742C607 733.163 599.837 726 591 726H583Z" fill="#4A4A4A" fill-opacity="0.05"/>
<path fill-rule="evenodd" clip-rule="evenodd" d="M887.749 1089.64C896.586 1089.59 903.706 1082.38 903.652 1073.54L903.543 1055.54C903.49 1046.71 896.283 1039.59 887.447 1039.64L869.447 1039.75C860.611 1039.8 853.491 1047.01 853.544 1055.85L853.653 1073.85C853.707 1082.68 860.913 1089.8 869.75 1089.75L887.749 1089.64ZM882.719 1084.67C891.556 1084.62 898.676 1077.41 898.622 1068.57L898.574 1060.57C898.52 1051.74 891.314 1044.62 882.477 1044.67L874.477 1044.72C865.641 1044.77 858.521 1051.98 858.575 1060.82L858.623 1068.82C858.676 1077.65 865.883 1084.77 874.719 1084.72L882.719 1084.67Z" fill="#4A4A4A" fill-opacity="0.05"/>
<path fill-rule="evenodd" clip-rule="evenodd" d="M807.751 1090.12C816.587 1090.07 823.707 1082.86 823.654 1074.03L823.545 1056.03C823.491 1047.19 816.285 1040.07 807.448 1040.12L789.449 1040.23C780.612 1040.29 773.492 1047.49 773.546 1056.33L773.655 1074.33C773.708 1083.17 780.915 1090.29 789.751 1090.23L807.751 1090.12ZM802.721 1085.15C811.557 1085.1 818.677 1077.89 818.624 1069.06L818.575 1061.06C818.522 1052.22 811.315 1045.1 802.479 1045.15L794.479 1045.2C785.643 1045.26 778.523 1052.46 778.576 1061.3L778.624 1069.3C778.678 1078.14 785.885 1085.26 794.721 1085.2L802.721 1085.15Z" fill="#4A4A4A" fill-opacity="0.05"/>
<path fill-rule="evenodd" clip-rule="evenodd" d="M727.752 1090.61C736.589 1090.55 743.709 1083.35 743.655 1074.51L743.546 1056.51C743.493 1047.67 736.286 1040.55 727.45 1040.61L709.45 1040.72C700.614 1040.77 693.494 1047.98 693.547 1056.81L693.656 1074.81C693.71 1083.65 700.916 1090.77 709.753 1090.72L727.752 1090.61ZM722.722 1085.64C731.559 1085.58 738.679 1078.38 738.625 1069.54L738.577 1061.54C738.523 1052.71 731.317 1045.59 722.48 1045.64L714.48 1045.69C705.644 1045.74 698.524 1052.95 698.577 1061.78L698.626 1069.78C698.679 1078.62 705.886 1085.74 714.722 1085.69L722.722 1085.64Z" fill="#4A4A4A" fill-opacity="0.05"/>
<path fill-rule="evenodd" clip-rule="evenodd" d="M647.754 1091.09C656.59 1091.04 663.71 1083.83 663.657 1074.99L663.548 1057C663.494 1048.16 656.288 1041.04 647.451 1041.09L629.452 1041.2C620.615 1041.25 613.495 1048.46 613.549 1057.3L613.658 1075.3C613.711 1084.13 620.918 1091.25 629.754 1091.2L647.754 1091.09ZM642.724 1086.12C651.56 1086.07 658.68 1078.86 658.627 1070.03L658.578 1062.03C658.525 1053.19 651.318 1046.07 642.482 1046.12L634.482 1046.17C625.645 1046.22 618.525 1053.43 618.579 1062.27L618.627 1070.27C618.681 1079.1 625.887 1086.22 634.724 1086.17L642.724 1086.12Z" fill="#4A4A4A" fill-opacity="0.05"/>
<path fill-rule="evenodd" clip-rule="evenodd" d="M647.27 1011.09C656.106 1011.04 663.226 1003.83 663.173 994.996L663.064 976.997C663.01 968.16 655.804 961.04 646.967 961.094L628.968 961.203C620.131 961.256 613.011 968.463 613.065 977.299L613.174 995.299C613.227 1004.14 620.434 1011.26 629.27 1011.2L647.27 1011.09ZM642.24 1006.12C651.076 1006.07 658.196 998.863 658.143 990.027L658.094 982.027C658.041 973.191 650.834 966.071 641.998 966.124L633.998 966.172C625.161 966.226 618.041 973.433 618.095 982.269L618.143 990.269C618.197 999.105 625.403 1006.23 634.24 1006.17L642.24 1006.12Z" fill="#4A4A4A" fill-opacity="0.05"/>
<path fill-rule="evenodd" clip-rule="evenodd" d="M646.786 931.094C655.622 931.041 662.742 923.834 662.689 914.998L662.58 896.998C662.526 888.162 655.32 881.042 646.483 881.095L628.484 881.204C619.647 881.258 612.527 888.464 612.581 897.301L612.69 915.3C612.743 924.137 619.95 931.257 628.786 931.203L646.786 931.094ZM641.756 926.125C650.592 926.071 657.712 918.865 657.659 910.028L657.61 902.028C657.557 893.192 650.35 886.072 641.514 886.126L633.514 886.174C624.677 886.227 617.557 893.434 617.611 902.27L617.659 910.27C617.713 919.107 624.919 926.227 633.756 926.173L641.756 926.125Z" fill="#4A4A4A" fill-opacity="0.05"/>
<path fill-rule="evenodd" clip-rule="evenodd" d="M727.268 1010.61C736.105 1010.56 743.225 1003.35 743.171 994.512L743.062 976.513C743.009 967.676 735.802 960.556 726.966 960.61L708.966 960.719C700.13 960.772 693.01 967.979 693.063 976.815L693.172 994.815C693.226 1003.65 700.432 1010.77 709.269 1010.72L727.268 1010.61ZM722.238 1005.64C731.075 1005.59 738.195 998.379 738.141 989.543L738.093 981.543C738.039 972.707 730.833 965.587 721.996 965.64L713.996 965.688C705.16 965.742 698.04 972.949 698.093 981.785L698.142 989.785C698.195 998.621 705.402 1005.74 714.238 1005.69L722.238 1005.64Z" fill="#4A4A4A" fill-opacity="0.05"/>
<path fill-rule="evenodd" clip-rule="evenodd" d="M807.267 1010.12C816.103 1010.07 823.223 1002.86 823.17 994.028L823.061 976.029C823.007 967.192 815.801 960.072 806.964 960.126L788.965 960.235C780.128 960.288 773.008 967.495 773.062 976.331L773.171 994.331C773.224 1003.17 780.431 1010.29 789.267 1010.23L807.267 1010.12ZM802.237 1005.16C811.073 1005.1 818.193 997.895 818.14 989.059L818.091 981.059C818.038 972.223 810.831 965.103 801.995 965.156L793.995 965.204C785.159 965.258 778.039 972.465 778.092 981.301L778.14 989.301C778.194 998.137 785.401 1005.26 794.237 1005.2L802.237 1005.16Z" fill="#4A4A4A" fill-opacity="0.05"/>
<path fill-rule="evenodd" clip-rule="evenodd" d="M726.784 930.61C735.621 930.557 742.741 923.35 742.687 914.514L742.578 896.514C742.525 887.678 735.318 880.558 726.482 880.611L708.482 880.72C699.646 880.774 692.526 887.98 692.579 896.817L692.688 914.816C692.742 923.653 699.948 930.773 708.785 930.719L726.784 930.61ZM721.754 925.641C730.591 925.587 737.711 918.381 737.657 909.544L737.609 901.544C737.555 892.708 730.349 885.588 721.512 885.641L713.512 885.69C704.676 885.743 697.556 892.95 697.609 901.786L697.658 909.786C697.711 918.623 704.918 925.743 713.754 925.689L721.754 925.641Z" fill="#4A4A4A" fill-opacity="0.05"/>
<path fill-rule="evenodd" clip-rule="evenodd" d="M646.302 851.096C655.138 851.042 662.258 843.836 662.205 834.999L662.096 817C662.042 808.163 654.836 801.043 645.999 801.097L628 801.206C619.163 801.259 612.043 808.466 612.097 817.302L612.206 835.302C612.259 844.138 619.466 851.258 628.302 851.205L646.302 851.096ZM641.272 846.126C650.108 846.073 657.228 838.866 657.175 830.03L657.126 822.03C657.073 813.193 649.866 806.074 641.03 806.127L633.03 806.175C624.193 806.229 617.073 813.435 617.127 822.272L617.175 830.272C617.229 839.108 624.435 846.228 633.272 846.175L641.272 846.126Z" fill="#4A4A4A" fill-opacity="0.05"/>
<path fill-rule="evenodd" clip-rule="evenodd" d="M1232 1448C1240.84 1448 1248 1440.84 1248 1432V1414C1248 1405.16 1240.84 1398 1232 1398H1214C1205.16 1398 1198 1405.16 1198 1414V1432C1198 1440.84 1205.16 1448 1214 1448H1232ZM1227 1443C1235.84 1443 1243 1435.84 1243 1427V1419C1243 1410.16 1235.84 1403 1227 1403H1219C1210.16 1403 1203 1410.16 1203 1419V1427C1203 1435.84 1210.16 1443 1219 1443H1227Z" fill="#4A4A4A" fill-opacity="0.08"/>
<path fill-rule="evenodd" clip-rule="evenodd" d="M1312 1448C1320.84 1448 1328 1440.84 1328 1432V1414C1328 1405.16 1320.84 1398 1312 1398H1294C1285.16 1398 1278 1405.16 1278 1414V1432C1278 1440.84 1285.16 1448 1294 1448H1312ZM1307 1443C1315.84 1443 1323 1435.84 1323 1427V1419C1323 1410.16 1315.84 1403 1307 1403H1299C1290.16 1403 1283 1410.16 1283 1419V1427C1283 1435.84 1290.16 1443 1299 1443H1307Z" fill="#4A4A4A" fill-opacity="0.08"/>
<path fill-rule="evenodd" clip-rule="evenodd" d="M1392 1448C1400.84 1448 1408 1440.84 1408 1432V1414C1408 1405.16 1400.84 1398 1392 1398H1374C1365.16 1398 1358 1405.16 1358 1414V1432C1358 1440.84 1365.16 1448 1374 1448H1392ZM1387 1443C1395.84 1443 1403 1435.84 1403 1427V1419C1403 1410.16 1395.84 1403 1387 1403H1379C1370.16 1403 1363 1410.16 1363 1419V1427C1363 1435.84 1370.16 1443 1379 1443H1387Z" fill="#4A4A4A" fill-opacity="0.08"/>
<path fill-rule="evenodd" clip-rule="evenodd" d="M1472 1448C1480.84 1448 1488 1440.84 1488 1432V1414C1488 1405.16 1480.84 1398 1472 1398H1454C1445.16 1398 1438 1405.16 1438 1414V1432C1438 1440.84 1445.16 1448 1454 1448H1472ZM1467 1443C1475.84 1443 1483 1435.84 1483 1427V1419C1483 1410.16 1475.84 1403 1467 1403H1459C1450.16 1403 1443 1410.16 1443 1419V1427C1443 1435.84 1450.16 1443 1459 1443H1467Z" fill="#4A4A4A" fill-opacity="0.08"/>
<path fill-rule="evenodd" clip-rule="evenodd" d="M1472 1528C1480.84 1528 1488 1520.84 1488 1512V1494C1488 1485.16 1480.84 1478 1472 1478H1454C1445.16 1478 1438 1485.16 1438 1494V1512C1438 1520.84 1445.16 1528 1454 1528H1472ZM1467 1523C1475.84 1523 1483 1515.84 1483 1507V1499C1483 1490.16 1475.84 1483 1467 1483H1459C1450.16 1483 1443 1490.16 1443 1499V1507C1443 1515.84 1450.16 1523 1459 1523H1467Z" fill="#4A4A4A" fill-opacity="0.08"/>
<path fill-rule="evenodd" clip-rule="evenodd" d="M1472 1608C1480.84 1608 1488 1600.84 1488 1592V1574C1488 1565.16 1480.84 1558 1472 1558H1454C1445.16 1558 1438 1565.16 1438 1574V1592C1438 1600.84 1445.16 1608 1454 1608H1472ZM1467 1603C1475.84 1603 1483 1595.84 1483 1587V1579C1483 1570.16 1475.84 1563 1467 1563H1459C1450.16 1563 1443 1570.16 1443 1579V1587C1443 1595.84 1450.16 1603 1459 1603H1467Z" fill="#4A4A4A" fill-opacity="0.08"/>
<path fill-rule="evenodd" clip-rule="evenodd" d="M1392 1528C1400.84 1528 1408 1520.84 1408 1512V1494C1408 1485.16 1400.84 1478 1392 1478H1374C1365.16 1478 1358 1485.16 1358 1494V1512C1358 1520.84 1365.16 1528 1374 1528H1392ZM1387 1523C1395.84 1523 1403 1515.84 1403 1507V1499C1403 1490.16 1395.84 1483 1387 1483H1379C1370.16 1483 1363 1490.16 1363 1499V1507C1363 1515.84 1370.16 1523 1379 1523H1387Z" fill="#4A4A4A" fill-opacity="0.08"/>
<path fill-rule="evenodd" clip-rule="evenodd" d="M1312 1528C1320.84 1528 1328 1520.84 1328 1512V1494C1328 1485.16 1320.84 1478 1312 1478H1294C1285.16 1478 1278 1485.16 1278 1494V1512C1278 1520.84 1285.16 1528 1294 1528H1312ZM1307 1523C1315.84 1523 1323 1515.84 1323 1507V1499C1323 1490.16 1315.84 1483 1307 1483H1299C1290.16 1483 1283 1490.16 1283 1499V1507C1283 1515.84 1290.16 1523 1299 1523H1307Z" fill="#4A4A4A" fill-opacity="0.08"/>
<path fill-rule="evenodd" clip-rule="evenodd" d="M1392 1608C1400.84 1608 1408 1600.84 1408 1592V1574C1408 1565.16 1400.84 1558 1392 1558H1374C1365.16 1558 1358 1565.16 1358 1574V1592C1358 1600.84 1365.16 1608 1374 1608H1392ZM1387 1603C1395.84 1603 1403 1595.84 1403 1587V1579C1403 1570.16 1395.84 1563 1387 1563H1379C1370.16 1563 1363 1570.16 1363 1579V1587C1363 1595.84 1370.16 1603 1379 1603H1387Z" fill="#4A4A4A" fill-opacity="0.08"/>
<path fill-rule="evenodd" clip-rule="evenodd" d="M1472 1688C1480.84 1688 1488 1680.84 1488 1672V1654C1488 1645.16 1480.84 1638 1472 1638H1454C1445.16 1638 1438 1645.16 1438 1654V1672C1438 1680.84 1445.16 1688 1454 1688H1472ZM1467 1683C1475.84 1683 1483 1675.84 1483 1667V1659C1483 1650.16 1475.84 1643 1467 1643H1459C1450.16 1643 1443 1650.16 1443 1659V1667C1443 1675.84 1450.16 1683 1459 1683H1467Z" fill="#4A4A4A" fill-opacity="0.08"/>
<path fill-rule="evenodd" clip-rule="evenodd" d="M1763.6 2006.69C1772.44 2006.69 1779.6 1999.53 1779.6 1990.69V1972.69C1779.6 1963.86 1772.44 1956.69 1763.6 1956.69H1745.6C1736.76 1956.69 1729.6 1963.86 1729.6 1972.69V1990.69C1729.6 1999.53 1736.76 2006.69 1745.6 2006.69H1763.6ZM1758.6 2001.69C1767.44 2001.69 1774.6 1994.53 1774.6 1985.69V1977.69C1774.6 1968.86 1767.44 1961.69 1758.6 1961.69H1750.6C1741.76 1961.69 1734.6 1968.86 1734.6 1977.69V1985.69C1734.6 1994.53 1741.76 2001.69 1750.6 2001.69H1758.6Z" fill="#4A4A4A" fill-opacity="0.08"/>
<path fill-rule="evenodd" clip-rule="evenodd" d="M1683.6 2007.18C1692.44 2007.18 1699.6 2000.01 1699.6 1991.18V1973.18C1699.6 1964.34 1692.44 1957.18 1683.6 1957.18H1665.6C1656.76 1957.18 1649.6 1964.34 1649.6 1973.18V1991.18C1649.6 2000.01 1656.76 2007.18 1665.6 2007.18H1683.6ZM1678.6 2002.18C1687.44 2002.18 1694.6 1995.01 1694.6 1986.18V1978.18C1694.6 1969.34 1687.44 1962.18 1678.6 1962.18H1670.6C1661.76 1962.18 1654.6 1969.34 1654.6 1978.18V1986.18C1654.6 1995.01 1661.76 2002.18 1670.6 2002.18H1678.6Z" fill="#4A4A4A" fill-opacity="0.08"/>
<path fill-rule="evenodd" clip-rule="evenodd" d="M1603.6 2007.66C1612.44 2007.66 1619.6 2000.5 1619.6 1991.66V1973.66C1619.6 1964.83 1612.44 1957.66 1603.6 1957.66H1585.6C1576.76 1957.66 1569.6 1964.83 1569.6 1973.66V1991.66C1569.6 2000.5 1576.76 2007.66 1585.6 2007.66H1603.6ZM1598.6 2002.66C1607.44 2002.66 1614.6 1995.5 1614.6 1986.66V1978.66C1614.6 1969.83 1607.44 1962.66 1598.6 1962.66H1590.6C1581.76 1962.66 1574.6 1969.83 1574.6 1978.66V1986.66C1574.6 1995.5 1581.76 2002.66 1590.6 2002.66H1598.6Z" fill="#4A4A4A" fill-opacity="0.08"/>
<path fill-rule="evenodd" clip-rule="evenodd" d="M1523.6 2008.15C1532.44 2008.15 1539.6 2000.98 1539.6 1992.15V1974.15C1539.6 1965.31 1532.44 1958.15 1523.6 1958.15H1505.6C1496.77 1958.15 1489.6 1965.31 1489.6 1974.15V1992.15C1489.6 2000.98 1496.77 2008.15 1505.6 2008.15H1523.6ZM1518.6 2003.15C1527.44 2003.15 1534.6 1995.98 1534.6 1987.15V1979.15C1534.6 1970.31 1527.44 1963.15 1518.6 1963.15H1510.6C1501.77 1963.15 1494.6 1970.31 1494.6 1979.15V1987.15C1494.6 1995.98 1501.77 2003.15 1510.6 2003.15H1518.6Z" fill="#4A4A4A" fill-opacity="0.08"/>
<path fill-rule="evenodd" clip-rule="evenodd" d="M1523.12 1928.15C1531.96 1928.15 1539.12 1920.98 1539.12 1912.15V1894.15C1539.12 1885.31 1531.96 1878.15 1523.12 1878.15H1505.12C1496.28 1878.15 1489.12 1885.31 1489.12 1894.15V1912.15C1489.12 1920.98 1496.28 1928.15 1505.12 1928.15H1523.12ZM1518.12 1923.15C1526.96 1923.15 1534.12 1915.98 1534.12 1907.15V1899.15C1534.12 1890.31 1526.96 1883.15 1518.12 1883.15H1510.12C1501.28 1883.15 1494.12 1890.31 1494.12 1899.15V1907.15C1494.12 1915.98 1501.28 1923.15 1510.12 1923.15H1518.12Z" fill="#4A4A4A" fill-opacity="0.08"/>
<path fill-rule="evenodd" clip-rule="evenodd" d="M1522.63 1848.15C1531.47 1848.15 1538.63 1840.99 1538.63 1832.15V1814.15C1538.63 1805.31 1531.47 1798.15 1522.63 1798.15H1504.63C1495.8 1798.15 1488.63 1805.31 1488.63 1814.15V1832.15C1488.63 1840.99 1495.8 1848.15 1504.63 1848.15H1522.63ZM1517.63 1843.15C1526.47 1843.15 1533.63 1835.99 1533.63 1827.15V1819.15C1533.63 1810.31 1526.47 1803.15 1517.63 1803.15H1509.63C1500.8 1803.15 1493.63 1810.31 1493.63 1819.15V1827.15C1493.63 1835.99 1500.8 1843.15 1509.63 1843.15H1517.63Z" fill="#4A4A4A" fill-opacity="0.08"/>
<path fill-rule="evenodd" clip-rule="evenodd" d="M1603.12 1927.66C1611.95 1927.66 1619.12 1920.5 1619.12 1911.66V1893.66C1619.12 1884.83 1611.95 1877.66 1603.12 1877.66H1585.12C1576.28 1877.66 1569.12 1884.83 1569.12 1893.66V1911.66C1569.12 1920.5 1576.28 1927.66 1585.12 1927.66H1603.12ZM1598.12 1922.66C1606.95 1922.66 1614.12 1915.5 1614.12 1906.66V1898.66C1614.12 1889.83 1606.95 1882.66 1598.12 1882.66H1590.12C1581.28 1882.66 1574.12 1889.83 1574.12 1898.66V1906.66C1574.12 1915.5 1581.28 1922.66 1590.12 1922.66H1598.12Z" fill="#4A4A4A" fill-opacity="0.08"/>
<path fill-rule="evenodd" clip-rule="evenodd" d="M1683.12 1927.18C1691.95 1927.18 1699.12 1920.02 1699.12 1911.18V1893.18C1699.12 1884.34 1691.95 1877.18 1683.12 1877.18H1665.12C1656.28 1877.18 1649.12 1884.34 1649.12 1893.18V1911.18C1649.12 1920.02 1656.28 1927.18 1665.12 1927.18H1683.12ZM1678.12 1922.18C1686.95 1922.18 1694.12 1915.02 1694.12 1906.18V1898.18C1694.12 1889.34 1686.95 1882.18 1678.12 1882.18H1670.12C1661.28 1882.18 1654.12 1889.34 1654.12 1898.18V1906.18C1654.12 1915.02 1661.28 1922.18 1670.12 1922.18H1678.12Z" fill="#4A4A4A" fill-opacity="0.08"/>
<path fill-rule="evenodd" clip-rule="evenodd" d="M1602.63 1847.67C1611.47 1847.67 1618.63 1840.5 1618.63 1831.67V1813.67C1618.63 1804.83 1611.47 1797.67 1602.63 1797.67H1584.63C1575.8 1797.67 1568.63 1804.83 1568.63 1813.67V1831.67C1568.63 1840.5 1575.8 1847.67 1584.63 1847.67H1602.63ZM1597.63 1842.67C1606.47 1842.67 1613.63 1835.5 1613.63 1826.67V1818.67C1613.63 1809.83 1606.47 1802.67 1597.63 1802.67H1589.63C1580.8 1802.67 1573.63 1809.83 1573.63 1818.67V1826.67C1573.63 1835.5 1580.8 1842.67 1589.63 1842.67H1597.63Z" fill="#4A4A4A" fill-opacity="0.08"/>
<path fill-rule="evenodd" clip-rule="evenodd" d="M1522.15 1768.15C1530.99 1768.15 1538.15 1760.99 1538.15 1752.15V1734.15C1538.15 1725.31 1530.99 1718.15 1522.15 1718.15H1504.15C1495.31 1718.15 1488.15 1725.31 1488.15 1734.15V1752.15C1488.15 1760.99 1495.31 1768.15 1504.15 1768.15H1522.15ZM1517.15 1763.15C1525.99 1763.15 1533.15 1755.99 1533.15 1747.15V1739.15C1533.15 1730.31 1525.99 1723.15 1517.15 1723.15H1509.15C1500.31 1723.15 1493.15 1730.31 1493.15 1739.15V1747.15C1493.15 1755.99 1500.31 1763.15 1509.15 1763.15H1517.15Z" fill="#4A4A4A" fill-opacity="0.08"/>
<ellipse cx="693" cy="1497.5" rx="281" ry="270.5" fill="#4A4A4A" fill-opacity="0.05"/>
<circle cx="525.5" cy="2173.5" r="270.5" fill="#4A4A4A" fill-opacity="0.05"/>
<circle cx="243.5" cy="4432.5" r="270.5" fill="#4A4A4A" fill-opacity="0.05"/>
<circle cx="1530.5" cy="6204.5" r="270.5" fill="#4A4A4A" fill-opacity="0.05"/>
<circle cx="103.5" cy="7792.5" r="270.5" fill="#4A4A4A" fill-opacity="0.05"/>
<circle cx="1766.5" cy="9522.5" r="270.5" fill="#4A4A4A" fill-opacity="0.05"/>
<circle cx="1629.5" cy="3110.5" r="270.5" fill="#4A4A4A" fill-opacity="0.05"/>
</g>
<defs>
<clipPath id="clip0">
<rect width="1900" height="10000" fill="white"/>
</clipPath>
</defs>
</svg>
