<?xml version="1.0" standalone="no"?>
<!DOCTYPE svg PUBLIC "-//W3C//DTD SVG 20010904//EN"
 "http://www.w3.org/TR/2001/REC-SVG-20010904/DTD/svg10.dtd">
<svg version="1.0" xmlns="http://www.w3.org/2000/svg"
 width="1200.000000pt" height="1200.000000pt" viewBox="0 0 1200.000000 1200.000000"
 preserveAspectRatio="xMidYMid meet">
<metadata>
Created by potrace 1.16, written by Peter Selinger 2001-2019
</metadata>
<g transform="translate(0.000000,1200.000000) scale(0.100000,-0.100000)"
fill="#000000" stroke="none">
<path d="M4420 7200 l0 -1580 1580 0 1580 0 0 1580 0 1580 -1580 0 -1580 0 0
-1580z m3080 0 l0 -1500 -1500 0 -1500 0 0 1500 0 1500 1500 0 1500 0 0 -1500z"/>
<path d="M5391 8116 c-28 -29 -59 -48 -87 -56 -25 -7 -46 -16 -49 -20 -2 -3 5
-40 15 -80 11 -41 17 -76 15 -78 -2 -2 -16 5 -31 17 l-28 22 -35 -35 c-20 -19
-62 -46 -93 -60 -32 -14 -58 -29 -58 -33 0 -4 9 -32 21 -62 15 -42 19 -66 14
-106 l-7 -52 69 -7 c142 -14 143 -15 143 -52 l0 -34 60 0 59 0 3 -57 c3 -57 3
-58 36 -61 l32 -3 0 60 0 61 60 0 60 0 0 34 c0 37 -4 36 140 52 79 8 77 6 70
60 -4 37 0 64 16 110 l23 61 -52 24 c-29 12 -71 41 -94 62 l-41 39 -35 -26
-35 -27 19 77 c11 42 18 82 15 89 -2 6 -25 18 -51 25 -34 10 -56 25 -83 57
-20 23 -39 43 -42 43 -3 0 -25 -20 -49 -44z m86 -86 c18 -16 40 -30 48 -30 20
0 20 -3 -15 -142 -17 -66 -30 -124 -28 -129 2 -5 38 16 82 47 78 55 78 55 100
36 11 -11 36 -27 54 -36 31 -16 32 -17 18 -49 -7 -18 -11 -46 -9 -63 l5 -31
-79 -7 c-115 -10 -123 -13 -123 -47 l0 -29 -90 0 -90 0 0 29 c0 32 -7 35 -132
47 l-66 7 -5 41 c-3 22 -8 53 -12 67 -6 22 -3 27 18 33 14 3 39 17 55 31 29
24 30 24 53 6 52 -40 131 -92 134 -89 2 2 -11 64 -30 138 -19 74 -35 136 -35
137 0 1 13 4 29 8 16 3 39 17 51 31 13 13 25 24 28 24 2 0 20 -13 39 -30z"/>
<path d="M6005 7240 l-730 -730 30 -30 30 -30 735 735 734 734 -24 26 c-13 14
-28 25 -34 25 -6 0 -339 -328 -741 -730z"/>
<path d="M6480 6585 l0 -325 203 2 202 3 0 30 0 30 -147 3 -148 3 0 254 0 255
140 0 140 0 0 35 0 35 -195 0 -195 0 0 -325z"/>
<path d="M3990 4180 l0 -510 75 0 75 0 0 510 0 510 -75 0 -75 0 0 -510z"/>
<path d="M3150 4160 l0 -490 300 0 300 0 0 55 0 55 -220 0 -220 0 0 380 0 380
210 0 210 0 0 55 0 55 -290 0 -290 0 0 -490z"/>
<path d="M4556 4355 c-136 -56 -203 -178 -194 -354 7 -144 72 -253 188 -313
40 -20 58 -23 160 -22 95 0 125 4 173 23 31 12 57 28 57 34 0 6 -7 31 -17 55
-12 31 -21 42 -32 38 -9 -2 -36 -12 -61 -21 -72 -27 -159 -23 -212 8 -119 70
-148 304 -49 407 59 62 158 73 204 22 22 -24 47 -86 47 -117 l0 -25 -98 0
c-107 0 -131 -9 -157 -61 l-16 -29 200 0 c230 0 211 -10 211 115 0 113 -51
198 -145 241 -70 33 -177 33 -259 -1z"/>
<path d="M5379 4357 c-101 -42 -160 -102 -198 -203 -66 -174 -5 -389 133 -468
59 -35 114 -41 183 -21 31 9 66 23 77 30 18 14 18 15 -13 45 -25 23 -43 30
-71 30 -116 0 -174 81 -173 240 2 164 75 253 208 253 115 0 105 32 105 -324 0
-353 -4 -383 -61 -440 -61 -61 -161 -70 -288 -25 -24 9 -47 16 -50 16 -7 0
-41 -86 -41 -102 0 -4 26 -17 58 -29 48 -20 76 -23 182 -24 117 0 128 2 176
27 63 33 127 103 150 166 16 41 18 93 22 429 l3 382 -38 10 c-94 25 -134 31
-218 31 -71 0 -102 -5 -146 -23z"/>
<path d="M6150 4365 c-85 -25 -91 -28 -86 -39 3 -6 10 -28 17 -49 12 -36 15
-38 43 -32 171 36 230 23 274 -60 24 -45 30 -296 8 -330 -26 -39 -99 -77 -153
-78 -40 0 -50 4 -75 32 -62 69 -17 138 109 166 38 8 83 57 83 91 0 21 -3 23
-32 18 -260 -43 -338 -96 -338 -230 0 -119 85 -194 219 -194 73 0 125 19 179
64 22 19 32 23 32 13 0 -8 9 -26 21 -41 18 -23 28 -26 81 -26 53 0 59 2 53 18
-5 9 -11 125 -14 258 -7 236 -7 241 -35 297 -47 98 -123 137 -260 136 -44 0
-101 -6 -126 -14z"/>
<path d="M7130 4373 c-47 -17 -130 -57 -130 -63 0 -12 33 -38 62 -49 18 -7 45
-7 74 -2 62 12 100 -2 113 -41 7 -19 11 -131 11 -289 l0 -259 75 0 75 0 0 283
c0 253 -2 286 -19 322 -21 46 -54 79 -94 94 -29 11 -140 14 -167 4z"/>
<path d="M7850 4363 c-150 -52 -226 -181 -218 -368 3 -79 8 -101 36 -158 57
-116 157 -177 291 -177 63 0 148 18 180 39 11 7 11 17 -4 60 -9 28 -20 51 -25
51 -4 0 -25 -7 -45 -16 -56 -23 -134 -22 -176 2 -66 39 -99 113 -99 224 0 188
86 265 263 236 45 -7 47 -6 58 21 6 15 13 40 16 54 4 24 1 27 -40 38 -64 16
-184 13 -237 -6z"/>
<path d="M6805 4343 c4 -16 9 -173 12 -350 l5 -323 74 0 74 0 0 307 c0 291 -1
309 -21 350 l-21 43 -65 0 -65 0 7 -27z"/>
<path d="M8240 4366 c0 -13 243 -662 251 -670 17 -18 49 75 49 147 0 73 -18
145 -95 385 l-46 142 -79 0 c-44 0 -80 -2 -80 -4z"/>
<path d="M8727 4217 c-146 -462 -210 -648 -237 -691 -38 -59 -80 -79 -143 -67
l-45 8 -20 -51 c-24 -63 -19 -67 84 -74 129 -8 194 42 264 206 32 75 300 805
300 817 0 3 -35 5 -77 5 l-78 0 -48 -153z"/>
<path d="M3412 4224 c-12 -8 -31 -33 -42 -55 l-20 -39 165 0 165 0 0 55 0 55
-123 0 c-95 0 -128 -4 -145 -16z"/>
</g>
</svg>
